<?xml version="1.0" encoding="utf-8"?>
<!-- Generator: Adobe Illustrator 15.0.2, SVG Export Plug-In . SVG Version: 6.00 Build 0)  -->
<!DOCTYPE svg PUBLIC "-//W3C//DTD SVG 1.1//EN" "http://www.w3.org/Graphics/SVG/1.1/DTD/svg11.dtd">
<svg version="1.1" id="レイヤー_1" xmlns="http://www.w3.org/2000/svg" xmlns:xlink="http://www.w3.org/1999/xlink" x="0px"
	 y="0px" width="39.905px" height="39.913px" viewBox="0 0 39.905 39.913" enable-background="new 0 0 39.905 39.913"
	 xml:space="preserve">
<path fill-rule="evenodd" clip-rule="evenodd" fill="#FFFFFF" d="M27.527,24.451c1.728,0,3.455,0,5.182,0
	c0.256-2.003,0.511-4.005,0.766-6.008c-1.982,0-3.964,0-5.947,0c0-1.065,0-2.132,0-3.199c0-1.307,0.026-2.439,0.765-2.994
	c1.094-0.823,3.496-0.582,5.388-0.579c0-1.796,0-3.592,0-5.389c-0.652-0.055-1.307-0.11-1.96-0.166
	c-0.496-0.02-0.991-0.041-1.487-0.062c-0.385,0-0.77,0-1.156,0c-1.168-0.001-2.198,0.137-3.034,0.474
	c-0.38,0.154-0.744,0.237-1.073,0.433c-1.316,0.792-2.339,1.795-2.975,3.263c-0.287,0.664-0.42,1.399-0.599,2.188
	c-0.021,0.275-0.04,0.55-0.063,0.825c-0.136,0.678-0.04,1.66-0.04,2.417c0,0.929,0,1.858,0,2.786c-1.729,0-3.454,0-5.182,0
	c0,2.003,0,4.005,0,6.008c1.728,0,3.453,0,5.182,0c0,5.148,0,10.297,0,15.444c-5.113,0-10.228,0-15.342,0c-0.921,0-1.843,0-2.765,0
	c-0.466,0-1.023,0.06-1.425-0.043c-0.642-0.161-1.141-0.529-1.447-1.031c-0.383-0.635-0.309-1.74-0.309-2.767
	c0-1.878,0-3.758,0-5.636c0-7.164,0-14.329,0-21.494c0-1.542,0-3.083,0-4.625c0-2.097-0.165-3.471,1.364-4.108
	c0.696-0.29,1.925-0.165,2.869-0.165c1.975,0,3.95,0,5.925,0c6.896,0,13.794,0,20.688,0c1.556,0,3.11,0,4.667,0
	c0.476,0,0.95,0,1.426,0c0.237,0,0.535-0.021,0.741,0.021c0.194,0.038,0.35-0.006,0.515,0.042c0.726,0.207,1.259,0.683,1.53,1.341
	c0.274,0.67,0.145,1.874,0.145,2.767c0,1.956,0,3.909,0,5.864c0,6.778,0,13.559,0,20.336c0,1.989,0,3.979,0,5.968
	c0,1.292,0.043,2.363-0.683,2.933c-0.332,0.26-0.684,0.469-1.177,0.576c-0.9,0.006-1.801,0.016-2.704,0.021
	c-2.603,0-5.203,0-7.805,0c0-0.006,0-0.016,0-0.021c0.092-0.166,0.021-0.947,0.021-1.197c0-1.02,0-2.038,0-3.055
	C27.527,31.898,27.527,28.175,27.527,24.451z"/>
</svg>
