<?xml version="1.0" encoding="utf-8"?>
<!-- Generator: Adobe Illustrator 15.0.2, SVG Export Plug-In . SVG Version: 6.00 Build 0)  -->
<!DOCTYPE svg PUBLIC "-//W3C//DTD SVG 1.1//EN" "http://www.w3.org/Graphics/SVG/1.1/DTD/svg11.dtd">
<svg version="1.1" id="レイヤー_1" xmlns="http://www.w3.org/2000/svg" xmlns:xlink="http://www.w3.org/1999/xlink" x="0px"
	 y="0px" width="47.836px" height="45.515px" viewBox="0 0 47.836 45.515" enable-background="new 0 0 47.836 45.515"
	 xml:space="preserve">
<g>
	<g>
		<line fill="#FFFFFF" x1="12.347" y1="14.597" x2="11.367" y2="15.542"/>
		<line fill="#FFFFFF" x1="16.602" y1="10.492" x2="18.047" y2="9.098"/>
		<line fill="#FFFFFF" x1="32.892" y1="31.733" x2="34.098" y2="30.571"/>
		<line fill="#FFFFFF" x1="41.55" y1="23.38" x2="36.187" y2="28.555"/>
		<line fill="#FFFFFF" x1="34.803" y1="29.89" x2="35.25" y2="29.459"/>
		<line fill="#FFFFFF" x1="22.174" y1="5.115" x2="18.983" y2="8.195"/>
		<line fill="#FFFFFF" x1="24.976" y1="39.371" x2="30.433" y2="34.106"/>
		<line fill="#FFFFFF" x1="5.135" y1="21.555" x2="7.592" y2="19.184"/>
		<line fill="#FFFFFF" x1="10.301" y1="16.57" x2="8.658" y2="18.156"/>
		<line fill="#FFFFFF" x1="31.499" y1="33.077" x2="32.188" y2="32.413"/>
		<path fill="#FFFFFF" d="M5.135,21.555"/>
		<line fill="#FFFFFF" x1="14.962" y1="12.074" x2="15.666" y2="11.395"/>
		<line fill="#FFFFFF" x1="13.052" y1="13.917" x2="14.257" y2="12.753"/>
		<path fill="#FFFFFF" d="M11.799,0.003c-2.716-0.059-5.379,0.77-7.516,2.48l8.626,7.746L11.799,0.003z"/>
		<path fill="#FFFFFF" d="M14.962,12.074l-0.907-0.814l-1.214-11.19c0.545,0.058,1.087,0.15,1.625,0.279l1.199,11.047L14.962,12.074
			z"/>
		<path fill="#FFFFFF" d="M1.861,5.182C0.389,7.489-0.149,10.227,0.2,12.92l10.287,0.006L1.861,5.182z"/>
		<path fill="#FFFFFF" d="M5.135,21.555l-0.636-0.572c-0.624-0.561-1.181-1.164-1.674-1.802l4.768,0.003L5.135,21.555z"/>
		<path fill="#FFFFFF" d="M16.602,10.492l-1.066-9.84c0.565,0.186,1.123,0.414,1.668,0.682l0.843,7.765L16.602,10.492z"/>
		<path fill="#FFFFFF" d="M11.367,15.542L0.83,15.535c-0.186-0.521-0.336-1.053-0.451-1.585l11.254,0.007l0.714,0.641L11.367,15.542
			z"/>
		<path fill="#FFFFFF" d="M8.658,18.156l-6.556-0.005c-0.324-0.515-0.611-1.044-0.857-1.586l9.056,0.005L8.658,18.156z"/>
		<path fill="#FFFFFF" d="M29.38,43.092c4.542,2.93,10.313,2.783,14.27-0.386l-1.99-1.786C38.356,43.613,33.774,44.321,29.38,43.092
			z"/>
		<polyline fill="#FFFFFF" points="35.25,29.459 35.351,30.381 34.803,29.89 35.25,29.459 		"/>
		<path fill="#FFFFFF" d="M35.25,29.459"/>
		<path fill="#FFFFFF" d="M32.892,31.733L45.295,42.87c0.201-0.19,0.397-0.388,0.585-0.596c0.188-0.209,0.363-0.426,0.53-0.646
			L34.098,30.571L32.892,31.733z"/>
		<path fill="#FFFFFF" d="M13.052,13.917L2.43,4.378c0.168-0.22,0.344-0.436,0.532-0.645c0.188-0.209,0.383-0.407,0.584-0.598
			l10.711,9.618L13.052,13.917z"/>
		<path fill="#FFFFFF" d="M44.926,25.78c1.691,4.238,1.479,8.868-0.844,12.443l1.988,1.786
			C48.799,35.736,48.327,29.982,44.926,25.78z"/>
		<path fill="#FFFFFF" d="M36.187,28.555"/>
		<path fill="#FFFFFF" d="M36.187,28.555l0.31,2.855l4.06,3.646c2.297-3.491,2.591-7.888,0.993-11.677L36.187,28.555z"/>
		<path fill="#FFFFFF" d="M18.983,8.195l-0.679-6.253c0.688,0.422,1.349,0.91,1.973,1.471l1.897,1.703L18.983,8.195z"/>
		<path fill="#FFFFFF" d="M27.15,41.165c4.688,2.211,9.995,1.89,13.656-1.013l-1.867-1.676
			C35.654,41.241,31.253,42.158,27.15,41.165z"/>
		<path fill="#FFFFFF" d="M24.976,39.371c4.335,1.982,9.475,1.42,13.159-1.617l-4.06-3.646l-3.642-0.001L24.976,39.371z"/>
		<path fill="#FFFFFF" d="M41.361,35.78l1.866,1.675c2.493-3.951,2.244-9.261-0.457-13.684
			C44.196,27.742,43.758,32.216,41.361,35.78z"/>
		<polygon fill="#FFFFFF" points="31.499,33.077 32.928,33.079 32.188,32.413 		"/>
	</g>
	<g>
		<path fill="#FFFFFF" d="M43.363,5.841l-7.91,7.646l10.276,0.175C45.833,10.956,45.044,8.19,43.363,5.841z"/>
		<path fill="#FFFFFF" d="M34.401,14.503l-1.62,1.567l12.558,0.211c0.137-0.521,0.239-1.052,0.305-1.588L34.401,14.503z"/>
		<path fill="#FFFFFF" d="M40.697,3.083c-2.291-1.761-5.029-2.642-7.736-2.63l-0.174,10.275L40.697,3.083z"/>
		<path fill="#FFFFFF" d="M18.689,24.356l7.701-7.443L26.638,2.29c-0.648,0.413-1.263,0.894-1.835,1.447l-5.86,5.665L18.689,24.356z
			"/>
		<path fill="#FFFFFF" d="M45.018,17.312l-13.29-0.226l-1.621,1.567l14.197,0.24C44.584,18.382,44.821,17.854,45.018,17.312z"/>
		<path fill="#FFFFFF" d="M30.327,0.754l-0.212,12.558l1.621-1.566l0.19-11.242C31.389,0.551,30.854,0.634,30.327,0.754z"/>
		<polygon fill="#FFFFFF" points="17.891,10.418 15.702,12.535 15.448,27.49 17.636,25.374 		"/>
		<path fill="#FFFFFF" d="M27.441,15.896l1.622-1.566l0.224-13.29c-0.548,0.18-1.083,0.398-1.606,0.658L27.441,15.896z"/>
		<path fill="#FFFFFF" d="M4.2,38.363c-2.646-3.64-3.282-8.304-1.978-12.541c-3.013,4.17-2.962,9.953,0.153,14.305L4.2,38.363z"/>
		<polygon fill="#FFFFFF" points="20.303,28.131 18.115,30.248 33.07,30.5 35.258,28.385 		"/>
		<polygon fill="#FFFFFF" points="17.062,31.265 14.874,33.379 29.83,33.633 32.019,31.518 		"/>
		<path fill="#FFFFFF" d="M3.412,43.022c-0.218-0.195-0.431-0.398-0.637-0.613c-0.208-0.213-0.402-0.434-0.591-0.658l39.31-37.999
			c0.218,0.196,0.431,0.398,0.637,0.613c0.206,0.213,0.401,0.433,0.59,0.657L3.412,43.022z"/>
		<path fill="#FFFFFF" d="M6.866,41.122l-1.824,1.763c4.242,3.262,10.021,3.51,14.292,0.64
			C15.054,44.683,10.414,43.889,6.866,41.122z"/>
		<path fill="#FFFFFF" d="M13.822,34.397L10.1,37.996c3.958,3.123,9.148,3.781,13.296,1.857l5.382-5.202L13.822,34.397z"/>
		<path fill="#FFFFFF" d="M29.057,19.67l-7.702,7.444l14.956,0.253l5.861-5.664c0.572-0.553,1.073-1.152,1.507-1.786L29.057,19.67z"
			/>
		<path fill="#FFFFFF" d="M4.984,37.605l1.712-1.653c-2.721-3.629-3.566-8.142-2.505-12.115C1.897,28.243,2.133,33.584,4.984,37.605
			z"/>
		<path fill="#FFFFFF" d="M7.433,35.237l3.723-3.599l0.253-14.954l-5.38,5.201C3.964,25.966,4.445,31.175,7.433,35.237z"/>
		<path fill="#FFFFFF" d="M21.384,41.623c-4.007,0.926-8.488-0.072-12.022-2.914L7.65,40.363
			C11.573,43.349,16.902,43.765,21.384,41.623z"/>
		<polygon fill="#FFFFFF" points="12.208,30.622 14.396,28.506 14.65,13.551 12.462,15.667 		"/>
	</g>
</g>
</svg>
