<?xml version="1.0" encoding="utf-8"?>
<!-- Generator: Adobe Illustrator 15.0.2, SVG Export Plug-In . SVG Version: 6.00 Build 0)  -->
<!DOCTYPE svg PUBLIC "-//W3C//DTD SVG 1.1//EN" "http://www.w3.org/Graphics/SVG/1.1/DTD/svg11.dtd">
<svg version="1.1" id="レイヤー_1" xmlns="http://www.w3.org/2000/svg" xmlns:xlink="http://www.w3.org/1999/xlink" x="0px"
	 y="0px" width="96.55px" height="39.843px" viewBox="0 0 96.55 39.843" enable-background="new 0 0 96.55 39.843"
	 xml:space="preserve">
<g>
	<path fill="#FFFFFF" d="M4.68,21.956L0,6.448h3.564l2.949,10.65l2.88-10.65h3.6L8.346,21.956v10.377H4.68V21.956z"/>
	<path fill="#FFFFFF" d="M14.396,30.614c-0.771-1.199-1.153-2.944-1.153-5.234v-5.549c0-2.29,0.383-4.035,1.153-5.236
		c0.77-1.2,2.072-1.8,3.908-1.8c1.819,0,3.112,0.601,3.881,1.8c0.77,1.201,1.153,2.946,1.153,5.236v5.549
		c0,2.29-0.384,4.035-1.153,5.234c-0.769,1.201-2.062,1.801-3.881,1.801C16.468,32.415,15.165,31.815,14.396,30.614z M19.563,28.878
		c0.26-0.349,0.421-0.78,0.479-1.293c0.061-0.514,0.09-1.213,0.09-2.096v-5.577c0-0.884-0.029-1.587-0.09-2.111
		c-0.058-0.524-0.219-0.959-0.479-1.31c-0.259-0.348-0.679-0.523-1.26-0.523c-0.579,0-1.002,0.176-1.271,0.523
		c-0.271,0.351-0.436,0.786-0.494,1.31c-0.063,0.524-0.091,1.228-0.091,2.111v5.577c0,0.883,0.028,1.582,0.091,2.096
		c0.059,0.513,0.223,0.944,0.494,1.293c0.269,0.35,0.691,0.523,1.271,0.523C18.885,29.401,19.305,29.228,19.563,28.878z"/>
	<path fill="#FFFFFF" d="M26.897,31.222c-0.394-0.741-0.591-1.657-0.591-2.748V13.319h3.155v13.435c0,0.719,0.009,1.736,0.205,2.097
		c0.197,0.359,0.631,0.82,1.311,0.646c0.745-0.188,1.851-1.324,2.051-1.861V13.319h3.156v18.752h-3.156v-2.285
		c-1.355,1.418-2.74,2.547-4.156,2.547C27.949,32.333,27.29,31.963,26.897,31.222z"/>
	<g>
		<path fill="#FFFFFF" d="M87.005,16.044c-0.52,0-0.913,0.121-1.183,0.361c-0.271,0.241-0.455,0.638-0.555,1.19
			c-0.1,0.552-0.148,1.35-0.148,2.394v0.661h3.684v-1.294c0-1.184-0.115-2.032-0.345-2.544
			C88.228,16.301,87.744,16.044,87.005,16.044z"/>
		<path fill="#FFFFFF" d="M74.375,16.012c-0.631,0-1.278,0.397-1.945,1.189v11.031c0.596,0.711,1.279,1.066,2.053,1.066
			c0.667,0,1.095-0.514,1.283-1.537c0.191-1.025,0.178-9.392-0.039-10.335C75.511,16.484,75.059,16.012,74.375,16.012z"/>
		<path fill="#FFFFFF" d="M93.423,2.456C91.405,0.768,88.95,0,68.029,0C51.41,0,45.115,0.23,42.638,2.456
			c-2.478,2.226-3.126,6.478-3.126,17.464c0,10.989,0.767,15.315,3.126,17.465c2.358,2.15,8.772,2.457,25.392,2.457
			c16.621,0,22.84-0.154,25.394-2.457c2.555-2.303,3.127-6.498,3.127-17.465C96.55,8.954,95.709,4.371,93.423,2.456z M55.869,10.402
			h-4.218v21.685h-3.335V10.402H43.98V7.004h11.889V10.402z M66.072,32.071H63.02v-2.285c-1.313,1.418-2.653,2.547-4.022,2.547
			c-0.894,0-1.53-0.37-1.911-1.111c-0.382-0.741-0.57-1.657-0.57-2.748V13.319h3.052v13.435c0,0.719,0.01,1.736,0.2,2.097
			c0.189,0.359,0.61,0.82,1.267,0.646c0.721-0.188,1.791-1.324,1.985-1.861V13.319h3.053V32.071z M79.085,28.365
			c0,2.112-0.848,3.968-2.917,3.968c-1.039,0-2.82-0.648-3.738-1.948v1.638h-3.207V7.004h3.207v8.253
			c0.736-0.908,2.088-2.093,3.699-2.093c1.921,0,2.958,1.585,2.956,3.417C79.083,18.455,79.085,28.365,79.085,28.365z
			 M91.948,23.222h-6.829v2.076c0,1.119,0.024,1.4,0.074,1.959c0.05,0.56,0.21,0.973,0.479,1.349
			c0.269,0.376,0.714,0.564,1.332,0.564c0.699,0,1.175-0.252,1.424-0.758c0.25-0.507,0.374-1.468,0.374-1.694v-1.129h3.117v0.709
			c0,1.959-0.39,3.454-1.169,4.486c-0.779,1.033-2.019,1.549-3.714,1.549c-1.34,0-2.38-0.274-3.117-0.822
			c-0.739-0.548-1.258-1.361-1.558-2.437s-0.45-2.474-0.45-4.194v-4.261c0-2.582,0.376-4.47,1.124-5.663
			c0.749-1.195,2.083-1.792,4.001-1.792c1.396,0,2.451,0.312,3.159,0.936c0.709,0.624,1.178,1.501,1.408,2.63
			c0.229,1.129,0.344,2.652,0.344,4.566V23.222z"/>
	</g>
</g>
</svg>
